<svg width="640" height="200" viewBox="0 0 640 200" fill="none" xmlns="http://www.w3.org/2000/svg" role="img" aria-label="Review scenarios and results">
  <defs>
    <linearGradient id="bg3" x1="0" y1="0" x2="640" y2="200" gradientUnits="userSpaceOnUse">
      <stop stop-color="#ECFDF5"/>
      <stop offset="1" stop-color="#E0E7FF"/>
    </linearGradient>
  </defs>
  <rect x="8" y="8" width="624" height="184" rx="24" fill="url(#bg3)" stroke="#CBD5E1"/>

  <rect x="48" y="44" width="340" height="116" rx="18" fill="#FFFFFF" stroke="#CBD5E1"/>
  <path d="M72 76 H364" stroke="#E2E8F0" stroke-width="2"/>
  <path d="M72 108 H364" stroke="#E2E8F0" stroke-width="2"/>
  <path d="M72 140 H364" stroke="#E2E8F0" stroke-width="2"/>
  <rect x="72" y="60" width="90" height="10" rx="5" fill="#CBD5E1"/>
  <rect x="180" y="60" width="70" height="10" rx="5" fill="#CBD5E1"/>
  <rect x="270" y="60" width="70" height="10" rx="5" fill="#CBD5E1"/>
  <rect x="72" y="92" width="110" height="10" rx="5" fill="#E2E8F0"/>
  <rect x="200" y="92" width="60" height="10" rx="5" fill="#0EA5E9"/>
  <rect x="270" y="92" width="60" height="10" rx="5" fill="#22C55E"/>

  <rect x="412" y="44" width="180" height="116" rx="18" fill="#FFFFFF" stroke="#CBD5E1"/>
  <path d="M432 142 L456 118 L480 126 L504 92 L528 110 L552 78" stroke="#6366F1" stroke-width="3" stroke-linecap="round" stroke-linejoin="round"/>
  <path d="M432 142 H560" stroke="#E2E8F0" stroke-width="2" stroke-linecap="round"/>
  <path d="M432 142 V68" stroke="#E2E8F0" stroke-width="2" stroke-linecap="round"/>
  <circle cx="504" cy="92" r="5" fill="#6366F1"/>
  <circle cx="552" cy="78" r="5" fill="#6366F1"/>
</svg>

